<svg width="29" height="28" viewBox="0 0 29 28" fill="none" xmlns="http://www.w3.org/2000/svg">
<g clip-path="url(#clip0_121_42)">
<path d="M12.8188 19.0332C14.2163 19.0332 15.5259 18.6113 16.6157 17.8906L20.4653 21.749C20.7202 21.9951 21.0454 22.1182 21.397 22.1182C22.1265 22.1182 22.6626 21.5469 22.6626 20.8262C22.6626 20.4922 22.5483 20.167 22.3022 19.9209L18.479 16.0801C19.27 14.9551 19.7358 13.5928 19.7358 12.1162C19.7358 8.31055 16.6245 5.19922 12.8188 5.19922C9.02197 5.19922 5.90186 8.31055 5.90186 12.1162C5.90186 15.9219 9.01318 19.0332 12.8188 19.0332ZM12.8188 17.1875C10.0327 17.1875 7.74756 14.9023 7.74756 12.1162C7.74756 9.33008 10.0327 7.04492 12.8188 7.04492C15.605 7.04492 17.8901 9.33008 17.8901 12.1162C17.8901 14.9023 15.605 17.1875 12.8188 17.1875Z" fill="black"/>
</g>
<defs>
<clipPath id="clip0_121_42">
<rect width="28" height="28" fill="white" transform="translate(0.286621)"/>
</clipPath>
</defs>
</svg>
